<mxfile host="app.diagrams.net" modified="2022-01-11T10:02:11.519Z" agent="5.0 (Windows NT 10.0; Win64; x64) AppleWebKit/537.36 (KHTML, like Gecko) Chrome/97.0.4692.71 Safari/537.36 Edg/97.0.1072.55" etag="5qoNpu72WkoHRP5I_Trg" version="16.2.4" type="github">
  <diagram id="FQ3qqsUySTdD4lGnzhzA" name="Page-1">
    <mxGraphModel dx="1422" dy="754" grid="1" gridSize="10" guides="1" tooltips="1" connect="1" arrows="1" fold="1" page="1" pageScale="1" pageWidth="850" pageHeight="1100" math="0" shadow="0">
      <root>
        <mxCell id="0" />
        <mxCell id="1" parent="0" />
        <mxCell id="o1zDvCFJsg2QZVPwt7X1-1" value="" style="rounded=0;whiteSpace=wrap;html=1;" parent="1" vertex="1">
          <mxGeometry x="20" y="10" width="1390" height="700" as="geometry" />
        </mxCell>
        <mxCell id="imXQzw5qly4_DwmWuwkZ-1" value="" style="rounded=0;whiteSpace=wrap;html=1;" vertex="1" parent="1">
          <mxGeometry x="130" y="50" width="630" height="50" as="geometry" />
        </mxCell>
        <mxCell id="imXQzw5qly4_DwmWuwkZ-2" value="" style="rounded=0;whiteSpace=wrap;html=1;" vertex="1" parent="1">
          <mxGeometry x="820" y="50" width="190" height="50" as="geometry" />
        </mxCell>
        <mxCell id="imXQzw5qly4_DwmWuwkZ-3" value="" style="rounded=0;whiteSpace=wrap;html=1;" vertex="1" parent="1">
          <mxGeometry x="1080" y="50" width="130" height="50" as="geometry" />
        </mxCell>
      </root>
    </mxGraphModel>
  </diagram>
</mxfile>
